<svg width="400" height="400" viewBox="0 0 400 400" xmlns="http://www.w3.org/2000/svg">
  <defs>
    <linearGradient id="bgGradient" x1="0%" y1="0%" x2="100%" y2="100%">
      <stop offset="0%" style="stop-color:#1a1a2e;stop-opacity:1" />
      <stop offset="50%" style="stop-color:#16213e;stop-opacity:1" />
      <stop offset="100%" style="stop-color:#0f3460;stop-opacity:1" />
    </linearGradient>
  </defs>
  
  <!-- Background rounded square -->
  <rect x="50" y="50" width="300" height="300" rx="60" fill="url(#bgGradient)"/>
  
  <!-- Central node -->
  <circle cx="200" cy="200" r="25" fill="#ffffff" opacity="0.9"/>
  
  <!-- Surrounding nodes -->
  <circle cx="200" cy="120" r="18" fill="#ffffff" opacity="0.8"/>
  <circle cx="280" cy="200" r="18" fill="#ffffff" opacity="0.8"/>
  <circle cx="200" cy="280" r="18" fill="#ffffff" opacity="0.8"/>
  <circle cx="120" cy="200" r="18" fill="#ffffff" opacity="0.8"/>
  
  <!-- Corner nodes -->
  <circle cx="150" cy="150" r="15" fill="#ffffff" opacity="0.7"/>
  <circle cx="250" cy="150" r="15" fill="#ffffff" opacity="0.7"/>
  <circle cx="250" cy="250" r="15" fill="#ffffff" opacity="0.7"/>
  <circle cx="150" cy="250" r="15" fill="#ffffff" opacity="0.7"/>
  
  <!-- Connection lines -->
  <line x1="200" y1="200" x2="200" y2="120" stroke="#ffffff" stroke-width="3" opacity="0.5"/>
  <line x1="200" y1="200" x2="280" y2="200" stroke="#ffffff" stroke-width="3" opacity="0.5"/>
  <line x1="200" y1="200" x2="200" y2="280" stroke="#ffffff" stroke-width="3" opacity="0.5"/>
  <line x1="200" y1="200" x2="120" y2="200" stroke="#ffffff" stroke-width="3" opacity="0.5"/>
  
  <line x1="200" y1="200" x2="150" y2="150" stroke="#ffffff" stroke-width="2" opacity="0.4"/>
  <line x1="200" y1="200" x2="250" y2="150" stroke="#ffffff" stroke-width="2" opacity="0.4"/>
  <line x1="200" y1="200" x2="250" y2="250" stroke="#ffffff" stroke-width="2" opacity="0.4"/>
  <line x1="200" y1="200" x2="150" y2="250" stroke="#ffffff" stroke-width="2" opacity="0.4"/>
  
  <!-- Connecting outer nodes -->
  <line x1="200" y1="120" x2="250" y2="150" stroke="#ffffff" stroke-width="2" opacity="0.3"/>
  <line x1="280" y1="200" x2="250" y2="250" stroke="#ffffff" stroke-width="2" opacity="0.3"/>
  <line x1="200" y1="280" x2="150" y2="250" stroke="#ffffff" stroke-width="2" opacity="0.3"/>
  <line x1="120" y1="200" x2="150" y2="150" stroke="#ffffff" stroke-width="2" opacity="0.3"/>
</svg>
